<svg width="170" height="34" viewBox="0 0 170 34" fill="none" xmlns="http://www.w3.org/2000/svg">
<g clip-path="url(#clip0_962_79316)">
<g clip-path="url(#clip1_962_79316)">
<path d="M21.9008 34C30.4044 34 37.4496 27.7565 38.7027 19.6036H33.7191C32.5282 25.0344 27.6891 29.0991 21.9008 29.0991C16.1125 29.0991 11.2735 25.0344 10.0826 19.6036H5.09902C4.96856 18.7548 4.9009 17.8853 4.9009 17C4.9009 16.1147 4.96856 15.2452 5.09902 14.3964H10.0826C11.2735 8.96562 16.1125 4.9009 21.9008 4.9009C27.6891 4.9009 32.5282 8.96562 33.7191 14.3964H38.7027C37.4496 6.24347 30.4044 0 21.9008 0C13.3973 0 6.35206 6.24347 5.09902 14.3964H0.1346C0.0456599 15.201 0 16.0186 0 16.8468C0 17.7804 0.0580114 18.7005 0.170626 19.6036H5.09902C6.35206 27.7565 13.3973 34 21.9008 34Z" fill="white"/>
<path d="M63.7442 6.14087C70.4989 6.14087 75.0022 10.9315 75.0022 17.4787C75.0022 24.026 70.4989 28.8167 63.7442 28.8167C56.909 28.8167 52.4866 24.026 52.4866 17.4787C52.4866 10.9315 56.909 6.14087 63.7442 6.14087ZM63.7442 25.2236C67.8454 25.2236 70.5795 21.9501 70.5795 17.5586C70.5795 13.0873 67.8454 9.89355 63.7442 9.89355C59.6431 9.89355 56.909 13.0873 56.909 17.5586C56.909 21.9501 59.6431 25.2236 63.7442 25.2236Z" fill="white"/>
<path d="M78.1375 12.928H82.3188V21.8705C82.3188 24.7449 83.5251 25.703 85.3745 25.703C87.3848 25.703 88.9127 24.0263 88.9127 21.152V12.928H93.0138V28.4976H89.0735V26.262H88.9127C88.0281 28.0185 86.3394 28.8969 84.1683 28.8969C80.9518 28.8969 78.1375 27.2201 78.1375 22.3496V12.928Z" fill="white"/>
<path d="M97.8399 15.962H94.8647V12.9278H97.8399V8.21704H101.941V12.9278H105.801V15.962H101.941V22.8285C101.941 24.5053 102.504 25.144 104.112 25.144H105.801V28.4975H103.308C99.2069 28.4975 97.8399 27.0603 97.8399 23.1479V15.962Z" fill="white"/>
<path d="M108.535 5.10327H112.716V28.4977H108.535V5.10327Z" fill="white"/>
<path d="M116.335 5.10327H120.758V8.93578H116.335V5.10327ZM116.496 12.928H120.677V28.4977H116.496V12.928Z" fill="white"/>
<path d="M128.88 19.7148L131.936 19.2357C133.625 18.9962 133.946 18.7567 133.946 17.9582C133.946 16.4412 133.062 15.3233 131.132 15.3233C129.202 15.3233 128.156 16.2815 128.076 17.8784H124.216C124.457 14.3652 127.272 12.449 131.132 12.449C135.795 12.449 138.047 14.4451 138.047 18.1179V28.4178H134.107V26.6612H133.946C132.981 28.0984 131.292 28.8969 128.96 28.8969C125.422 28.8969 123.653 27.1403 123.653 24.5055C123.653 21.8706 125.101 20.2737 128.88 19.7148ZM133.866 22.19V20.8326C133.544 21.2318 133.062 21.4713 132.338 21.5512L129.925 21.9504C128.237 22.2698 127.593 22.9884 127.593 24.0264C127.593 25.2241 128.397 25.9427 130.006 25.9427C132.016 26.0225 133.866 24.8249 133.866 22.19Z" fill="white"/>
<path d="M141.746 12.928H145.686V15.1637H145.847C146.731 13.4071 148.501 12.5288 150.672 12.5288C153.888 12.5288 156.703 14.2056 156.703 19.076V28.4977H152.521V19.5551C152.521 16.6807 151.315 15.7226 149.465 15.7226C147.375 15.7226 145.847 17.3994 145.847 20.2737V28.4977H141.746V12.928Z" fill="white"/>
<path d="M161.285 15.962H158.31V12.9278H161.285V8.21704H165.386V12.9278H169.246V15.962H165.386V22.8285C165.386 24.5053 165.949 25.144 167.557 25.144H169.246V28.4975H166.754C162.653 28.4975 161.285 27.0603 161.285 23.1479V15.962Z" fill="white"/>
</g>
</g>
<defs>
<clipPath id="clip0_962_79316">
<rect width="169.387" height="34" fill="white"/>
</clipPath>
<clipPath id="clip1_962_79316">
<rect width="169.387" height="34" fill="white"/>
</clipPath>
</defs>
</svg>
